<svg xmlns="http://www.w3.org/2000/svg" viewBox="0 0 360 360" preserveAspectRatio="xMidYMid slice">
  <!-- Background -->
  <rect x="0" y="0" width="100%" height="100%" fill="#f5f7fa" />
  
  <!-- Grid Pattern -->
  <defs>
    <pattern id="grid" x="0" y="0" width="20" height="20" patternUnits="userSpaceOnUse">
      <path d="M 20 0 L 0 0 0 20" fill="none" stroke="#e2e8f0" stroke-width="1"/>
    </pattern>
    
    <!-- Subtle dots -->
    <pattern id="dots" x="0" y="0" width="20" height="20" patternUnits="userSpaceOnUse">
      <circle cx="10" cy="10" r="1" fill="#cbd5e1" />
    </pattern>
    
    <!-- Geometric elements -->
    <pattern id="hexagons" x="0" y="0" width="60" height="104" patternUnits="userSpaceOnUse">
      <path d="M30 0 L60 17.32 L60 51.96 L30 69.28 L0 51.96 L0 17.32 Z" fill="none" stroke="#94a3b8" stroke-width="1" opacity="0.3" />
      <path d="M30 34.64 L60 51.96 L60 86.6 L30 103.92 L0 86.6 L0 51.96 Z" fill="none" stroke="#94a3b8" stroke-width="1" opacity="0.3" />
      <path d="M90 17.32 L60 34.64 L30 17.32 L30 -17.32 L60 -34.64 L90 -17.32 Z" fill="none" stroke="#94a3b8" stroke-width="1" opacity="0.3" />
    </pattern>
  </defs>
  
  <!-- Apply patterns -->
  <rect x="0" y="0" width="100%" height="100%" fill="url(#grid)" />
  <rect x="0" y="0" width="100%" height="100%" fill="url(#dots)" />
  <rect x="0" y="0" width="100%" height="100%" fill="url(#hexagons)" />
  
  <!-- Gradient overlay -->
  <rect x="0" y="0" width="100%" height="100%" fill="url(#gradient)" opacity="0.7" />
  
  <!-- Accent elements -->
  <defs>
    <linearGradient id="gradient" x1="0%" y1="0%" x2="100%" y2="100%">
      <stop offset="0%" stop-color="#3b82f6" stop-opacity="0.05" />
      <stop offset="100%" stop-color="#8b5cf6" stop-opacity="0.1" />
    </linearGradient>
  </defs>
  
  <!-- Subtle corner accents -->
  <path d="M0,0 L60,0 L60,5 L5,5 L5,60 L0,60 Z" fill="#3b82f6" opacity="0.2" />
  <path d="M360,0 L300,0 L300,5 L355,5 L355,60 L360,60 Z" fill="#3b82f6" opacity="0.2" />
  <path d="M0,360 L60,360 L60,355 L5,355 L5,300 L0,300 Z" fill="#3b82f6" opacity="0.2" />
  <path d="M360,360 L300,360 L300,355 L355,355 L355,300 L360,300 Z" fill="#3b82f6" opacity="0.2" />
  
  <!-- Center element -->
  <g opacity="0.15">
    <path d="M180,120 L200,140 L180,160 L160,140 Z" fill="#1e40af" />
    <path d="M180,140 L220,180 L180,220 L140,180 Z" fill="#3b82f6" stroke="#1e40af" stroke-width="1" />
    <circle cx="180" cy="180" r="25" fill="none" stroke="#3b82f6" stroke-width="2" />
  </g>
</svg>